<svg version="1.2" xmlns="http://www.w3.org/2000/svg" viewBox="0 0 512 512" width="512" height="512">
	<title>logo-svg</title>
	<style>
		.s0 { fill: #edf3fc } 
		.s1 { fill: #ffbe1b } 
		.s2 { fill: #5d8ef9 } 
		.s3 { fill: #330d84 } 
	</style>
	<g id="Layer">
		<g id="Layer">
			<g id="Layer">
				<path id="Layer" class="s0" d="m256 40.9c-118.8 0-215.1 96.3-215.1 215.1 0 118.8 96.3 215.1 215.1 215.1 118.8 0 215.1-96.3 215.1-215.1 0-118.8-96.3-215.1-215.1-215.1z"/>
			</g>
		</g>
		<g id="Layer">
			<g id="Layer">
				<path id="Layer" fill-rule="evenodd" class="s0" d="m511 256c0 140.6-114.4 255-255 255-140.6 0-255-114.4-255-255 0-140.6 114.4-255 255-255 140.6 0 255 114.4 255 255zm-8.2 0c0-136.1-110.7-246.8-246.8-246.8-136.1 0-246.8 110.7-246.8 246.8 0 136.1 110.7 246.8 246.8 246.8 136.1 0 246.8-110.7 246.8-246.8z"/>
			</g>
		</g>
		<path id="Layer" class="s1" d="m178.7 119.3l2.4 0.6-2.4 0.6c-14 3.5-24.9 14.4-28.4 28.4l-0.6 2.4-0.6-2.4c-3.5-14-14.4-24.9-28.4-28.4l-2.4-0.6 2.4-0.6c14-3.5 24.9-14.4 28.4-28.4l0.6-2.3 0.6 2.3c3.5 14 14.4 24.9 28.4 28.4z"/>
		<path id="Layer" class="s2" d="m223.2 399.8l2.4 0.6-2.4 0.6c-14 3.5-24.9 14.4-28.4 28.4l-0.6 2.4-0.6-2.4c-3.5-14-14.4-24.9-28.3-28.4l-2.4-0.6 2.4-0.6c13.9-3.5 24.8-14.4 28.3-28.4l0.6-2.3 0.6 2.3c3.5 14 14.4 24.9 28.4 28.4z"/>
		<path id="Layer" class="s3" d="m440.5 307l2.1 0.5-2.1 0.5c-11.9 3-21.2 12.3-24.2 24.2l-0.5 2-0.5-2c-3-11.9-12.2-21.2-24.2-24.2l-2-0.5 2-0.5c12-3 21.2-12.3 24.2-24.2l0.5-2 0.5 2c3 11.9 12.3 21.2 24.2 24.2z"/>
		<path id="Layer" class="s2" d="m298 298.5h-115c-12.9 0-23.3-10.4-23.3-23.3v-96.3h-22.1c-12.9 0-23.3 10.4-23.3 23.3v103.2c0 12.9 10.4 23.3 23.3 23.3l-14.3 56.7 80.9-56.7h115c5.5 0 10.6-1.9 14.6-5.1z"/>
		<path id="Layer" class="s3" d="m364.6 298.5l14.3 56.6-80.9-56.6h-115c-12.9 0-23.3-10.4-23.3-23.3v-103.3c0-12.8 10.4-23.3 23.3-23.3h181.6c12.9 0 23.3 10.5 23.3 23.3v103.3c0 12.9-10.4 23.3-23.3 23.3z"/>
		<path id="Layer" class="s1" d="m225.9 236.7c-8.7 3.6-18.7-0.5-22.3-9.3-3.7-8.7 0.5-18.7 9.2-22.4 8.8-3.6 18.8 0.5 22.4 9.3 3.6 8.8-0.5 18.8-9.3 22.4z"/>
		<path id="Layer" class="s1" d="m280.4 236.7c-8.8 3.6-18.8-0.5-22.4-9.3-3.7-8.7 0.5-18.7 9.2-22.4 8.8-3.6 18.8 0.5 22.4 9.3 3.7 8.8-0.5 18.8-9.2 22.4z"/>
		<path id="Layer" class="s1" d="m334.8 236.7c-8.8 3.6-18.8-0.5-22.4-9.3-3.7-8.7 0.5-18.7 9.3-22.4 8.7-3.6 18.7 0.5 22.3 9.3 3.7 8.8-0.5 18.8-9.2 22.4z"/>
		<path id="Layer" class="s2" d="m267.2 366l1.3 0.3-1.3 0.3c-7.8 2-13.8 8.1-15.8 15.8l-0.3 1.4-0.3-1.4c-2-7.7-8.1-13.8-15.8-15.8l-1.4-0.3 1.4-0.3c7.7-2 13.8-8 15.8-15.8l0.3-1.3 0.3 1.3c2 7.8 8 13.8 15.8 15.8z"/>
	</g>
</svg>